<svg width="262" height="49" viewBox="0 0 262 49" fill="none" xmlns="http://www.w3.org/2000/svg">
<path d="M49.3493 14.7594V5.36963H58.1468V14.7594H65.5356V22.3402H58.1468V35.9655C58.1468 37.7602 58.5062 38.9949 59.225 39.6841C59.9437 40.3732 60.8781 40.7465 62.0425 40.7896C63.2068 40.8327 64.4 40.7609 65.6075 40.5886V47.9683C63.5087 48.4134 61.4675 48.557 59.4981 48.3991C57.5287 48.2411 55.7893 47.7243 54.2943 46.8197C52.7993 45.9296 51.5918 44.5943 50.7006 42.8284C49.8093 41.0624 49.3637 38.7652 49.3637 35.9511V22.3258H44.6631V14.7451H49.3493V14.7594Z" fill="#006AAC"/>
<path d="M74.0024 14.7594V5.36963H82.7999V14.7594H90.1887V22.3402H82.7999V35.9655C82.7999 37.7602 83.1593 38.9949 83.878 39.6841C84.5968 40.3732 85.5312 40.7465 86.6955 40.7896C87.8599 40.8327 89.053 40.7609 90.2605 40.5886V47.9683C88.1618 48.4134 86.1205 48.557 84.1512 48.3991C82.1818 48.2411 80.4424 47.7243 78.9474 46.8197C77.4524 45.9296 76.2449 44.5943 75.3537 42.8284C74.4624 41.0624 74.0168 38.7652 74.0168 35.9511V22.3258H69.3162V14.7451H74.0024V14.7594Z" fill="#006AAC"/>
<path d="M111.622 48.7867C108.215 48.7867 105.239 48.0545 102.681 46.5757C100.122 45.0968 98.1525 43.0437 96.7293 40.4019C95.3206 37.7602 94.6162 34.7164 94.6162 31.2706C94.6162 28.0114 95.3206 25.0968 96.7293 22.5412C98.1381 19.9856 100.079 17.9755 102.537 16.4967C104.995 15.0179 107.827 14.2856 111.004 14.2856C114.224 14.2856 117.07 14.9748 119.542 16.3388C122.001 17.7027 123.927 19.641 125.292 22.1392C126.658 24.6518 127.362 27.552 127.406 30.8686C127.406 31.3567 127.377 31.9023 127.305 32.5053C127.233 33.1083 127.132 33.7401 127.003 34.4149H103.902C104.075 35.8506 104.535 37.071 105.282 38.076C106.016 39.0811 106.936 39.8707 108.042 40.4307C109.135 40.9906 110.4 41.2634 111.837 41.2634C113.447 41.2634 114.914 40.9332 116.236 40.2584C117.559 39.5836 118.507 38.6647 119.097 37.5017L126.759 39.7128C125.422 42.5699 123.409 44.7953 120.75 46.389C118.062 47.9971 115.029 48.7867 111.622 48.7867ZM118.004 28.1837C117.918 26.9346 117.559 25.8004 116.926 24.7953C116.294 23.7903 115.489 23.0006 114.468 22.4407C113.462 21.8808 112.312 21.608 111.004 21.608C109.882 21.651 108.833 21.9526 107.841 22.5125C106.849 23.0724 106.016 23.8334 105.326 24.7953C104.636 25.7573 104.176 26.8915 103.946 28.1837H118.004Z" fill="#006AAC"/>
<path d="M133.932 14.7594H141.723L142.327 18.1765C143.405 16.9705 144.713 16.0229 146.251 15.3194C147.789 14.6302 149.471 14.2856 151.254 14.2856C153.942 14.2856 156.213 14.8456 158.068 15.9655C159.922 17.0854 161.345 18.7078 162.337 20.8327C163.329 22.9576 163.818 25.585 163.818 28.7149V48.3129H155.221V29.7917C155.221 27.2935 154.689 25.3696 153.64 24.02C152.591 22.6848 151.024 22.01 148.968 22.01C146.869 22.01 145.259 22.6848 144.167 24.02C143.074 25.3553 142.528 27.3366 142.528 29.921V48.3129H133.932V14.7594Z" fill="#006AAC"/>
<path d="M196.003 19.799L194.925 20V0H203.521V48.313H195.73L195.198 44.1493C194.163 45.4415 192.754 46.547 190.972 47.4372C189.175 48.3273 187.148 48.7724 184.862 48.7724C181.901 48.7724 179.314 48.0546 177.071 46.6188C174.829 45.1831 173.089 43.173 171.824 40.5743C170.574 37.9756 169.941 34.9605 169.941 31.5147C169.941 28.0258 170.574 24.9821 171.824 22.3833C173.075 19.7846 174.829 17.7889 177.071 16.3819C179.314 14.9749 181.901 14.2714 184.862 14.2714C187.421 14.2714 189.649 14.8026 191.576 15.8794C193.502 16.9849 194.968 18.2771 196.003 19.799ZM179.141 31.5434C179.141 34.3144 179.874 36.5829 181.326 38.3202C182.778 40.0718 184.676 40.9332 187.004 40.9332C188.442 40.9332 189.75 40.5599 190.929 39.8277C192.122 39.0955 193.085 38.033 193.818 36.6403C194.551 35.2477 194.925 33.5535 194.925 31.5434C194.925 29.5334 194.551 27.8248 193.818 26.4465C193.085 25.0538 192.122 23.9914 190.929 23.2592C189.736 22.5269 188.427 22.1536 187.004 22.1536C184.676 22.1536 182.778 23.0294 181.326 24.7667C179.874 26.5039 179.141 28.7724 179.141 31.5434Z" fill="#006AAC"/>
<path d="M217.307 10.4664C215.697 10.4664 214.374 9.94955 213.339 8.93017C212.304 7.89643 211.801 6.67604 211.801 5.24029C211.801 3.76147 212.319 2.52672 213.339 1.5217C214.374 0.516673 215.697 0.0141602 217.307 0.0141602C218.831 0.0141602 220.11 0.516673 221.174 1.5217C222.223 2.52672 222.755 3.77583 222.755 5.24029C222.755 6.67604 222.223 7.89643 221.174 8.93017C220.11 9.96391 218.831 10.4664 217.307 10.4664ZM212.937 14.7593H221.605V48.3128H212.937V14.7593Z" fill="#006AAC"/>
<path d="M228.39 14.7593H238.395L245.252 25.0967L252.037 14.7593H261.913L250.226 31.5288L261.913 48.2984H252.037L245.252 37.9036L238.395 48.2984H228.39L240.221 31.5288L228.39 14.7593Z" fill="#006AAC"/>
<path d="M29.7994 4.72363H15.7838L0 48.6719H8.7975L12.3481 38.5068H33.2494L36.8288 48.6719H45.5687L29.7994 4.72363ZM22.7988 9.94976C25.2713 9.94976 27.2837 11.9598 27.2837 14.4293C27.2837 16.8988 25.2713 18.9088 22.7988 18.9088C20.3263 18.9088 18.3137 16.8988 18.3137 14.4293C18.3137 11.9598 20.3263 9.94976 22.7988 9.94976ZM31.6106 30.9979C30.4031 32.1177 27.8012 33.9124 22.6262 33.9699C17.1781 34.0273 14.7775 31.9742 13.7425 30.8399C13.1388 30.2513 13.2538 29.2893 13.34 28.873C14.5763 23.331 18.3425 19.3109 22.7988 19.3109C27.2406 19.3109 30.9925 23.3166 32.2431 28.8299C32.3437 29.2606 32.4731 30.3087 31.6106 30.9979Z" fill="#006AAC"/>
</svg>
