<svg width="276" height="80" viewBox="0 0 276 80" fill="none" xmlns="http://www.w3.org/2000/svg">
<path d="M42.8231 69.4907C42.895 69.7634 43.0244 70.0362 43.2112 70.309C43.3981 70.5818 43.6856 70.8115 44.0306 70.9838C44.39 71.1561 44.85 71.2566 45.425 71.2566C46.23 71.2566 46.8337 71.07 47.2219 70.711C47.61 70.3377 47.7969 69.8927 47.7969 69.3471C47.7969 68.9307 47.6819 68.5861 47.4662 68.3133C47.2506 68.0405 46.9487 67.8252 46.575 67.6385C46.2012 67.4662 45.7844 67.3083 45.31 67.1791C44.9075 67.0786 44.5194 66.9494 44.1456 66.8202C43.7719 66.6909 43.4412 66.533 43.1394 66.332C42.8375 66.1454 42.6075 65.8869 42.4206 65.5854C42.2481 65.2839 42.1618 64.8963 42.1618 64.4512C42.1618 63.8912 42.2912 63.4031 42.55 62.9867C42.8087 62.5703 43.1825 62.2545 43.6569 62.0248C44.1312 61.795 44.7062 61.6802 45.3531 61.6802C45.9281 61.6802 46.4168 61.7663 46.8337 61.9386C47.2506 62.1109 47.5956 62.3406 47.8687 62.6421C48.1419 62.9436 48.3287 63.2595 48.4581 63.6184L47.6819 63.9056C47.61 63.6759 47.4662 63.4605 47.265 63.2308C47.0637 63.0011 46.805 62.8144 46.4743 62.6708C46.1437 62.5273 45.77 62.4411 45.31 62.4411C44.8931 62.4411 44.505 62.5129 44.16 62.6708C43.815 62.8144 43.5275 63.0441 43.3262 63.3313C43.1106 63.6184 43.01 63.963 43.01 64.3507C43.01 64.7814 43.125 65.1116 43.355 65.3557C43.585 65.5998 43.9012 65.8008 44.275 65.9587C44.6631 66.1023 45.08 66.2459 45.5543 66.3894C45.9568 66.5187 46.3306 66.6479 46.7043 66.7914C47.0781 66.935 47.4087 67.1217 47.6962 67.3227C47.9837 67.538 48.2137 67.7965 48.3862 68.1123C48.5587 68.4282 48.645 68.8159 48.645 69.2753C48.645 69.7634 48.53 70.2372 48.3 70.6536C48.07 71.0843 47.725 71.4289 47.2506 71.673C46.7762 71.9314 46.1581 72.0606 45.3962 72.0606C44.7493 72.0606 44.1887 71.9601 43.7144 71.7591C43.24 71.5581 42.8662 71.2997 42.5787 70.9551C42.2912 70.6249 42.09 70.2516 41.975 69.8352L42.8231 69.4907Z" fill="#006AAC"/>
<path d="M50.6288 64.6661H51.405L51.4625 65.987C51.6494 65.5563 51.9225 65.2117 52.3106 64.9533C52.6844 64.6948 53.1731 64.5656 53.7625 64.5656C54.3088 64.5656 54.7975 64.7092 55.2288 64.982C55.66 65.2691 55.9906 65.6855 56.2063 66.2598C56.4075 65.6712 56.7381 65.2548 57.2125 64.9676C57.6725 64.6948 58.2044 64.5513 58.7794 64.5513C59.3113 64.5513 59.7856 64.6661 60.2025 64.9102C60.6194 65.1543 60.95 65.4989 61.18 65.9727C61.41 66.4465 61.525 67.0495 61.525 67.7673V71.931H60.6913V67.8535C60.6913 67.0351 60.5188 66.4034 60.1594 65.9727C59.8 65.5419 59.2969 65.3266 58.65 65.3266C57.9744 65.3266 57.4425 65.5707 57.0544 66.0444C56.6663 66.5182 56.465 67.2218 56.465 68.1406V71.931H55.6169V67.8535C55.6169 67.0351 55.4444 66.4034 55.0994 65.9727C54.7544 65.5419 54.2513 65.3266 53.6044 65.3266C52.9288 65.3266 52.4113 65.5707 52.0231 66.0444C51.635 66.5182 51.4481 67.2218 51.4481 68.1406V71.931H50.6144V64.6661H50.6288Z" fill="#006AAC"/>
<path d="M68.4106 71.931L68.3531 70.3948C68.1518 70.9116 67.8356 71.328 67.4043 71.6152C66.9731 71.9023 66.4268 72.0459 65.7656 72.0459C65.2481 72.0459 64.7881 71.9597 64.4287 71.8018C64.0549 71.6439 63.7818 71.4142 63.5806 71.1126C63.3793 70.8111 63.2787 70.4522 63.2787 70.0358C63.2787 69.4185 63.5087 68.9303 63.9687 68.5427C64.4287 68.155 65.1043 67.9253 66.0099 67.8391L68.3674 67.5807V66.9633C68.3674 66.4608 68.1949 66.0588 67.8643 65.7717C67.5337 65.4845 67.0593 65.3409 66.4699 65.3409C65.9093 65.3409 65.4349 65.4701 65.0612 65.7286C64.6874 65.987 64.4431 66.3603 64.3137 66.8485L63.5518 66.59C63.7387 65.9439 64.0837 65.4414 64.5868 65.0825C65.0899 64.7236 65.7224 64.5513 66.4843 64.5513C67.3324 64.5513 68.0081 64.7666 68.4824 65.1974C68.9568 65.6281 69.2012 66.2167 69.2012 66.9633V71.931H68.4106ZM68.3531 68.2842L65.9812 68.557C65.3631 68.6288 64.9031 68.7724 64.6012 69.0165C64.2993 69.2605 64.1556 69.5764 64.1556 69.9784C64.1556 70.3804 64.2993 70.7106 64.5868 70.9404C64.8743 71.1701 65.2768 71.2849 65.8231 71.2849C66.3837 71.2849 66.8581 71.1701 67.2318 70.9404C67.6056 70.7106 67.8931 70.3948 68.0799 69.9928C68.2668 69.5908 68.3674 69.1313 68.3674 68.6288V68.2842H68.3531Z" fill="#006AAC"/>
<path d="M71.4006 64.6664H72.1769L72.22 65.9586C72.3781 65.6571 72.6081 65.3987 72.8956 65.1689C73.1831 64.9392 73.4994 64.7813 73.8588 64.6951C74.2181 64.5946 74.6063 64.5946 75.0375 64.6664V65.4992C74.6206 65.413 74.2469 65.413 73.9019 65.5135C73.5569 65.5997 73.2694 65.772 73.025 66.0017C72.7806 66.2314 72.5794 66.5185 72.45 66.8775C72.3206 67.2221 72.2488 67.6241 72.2488 68.0692V71.9457H71.415V64.6664H71.4006Z" fill="#006AAC"/>
<path d="M77.0499 64.6662V62.6274H77.8837V64.6662H79.9249V65.4415H77.8837V69.7344C77.8837 70.1651 77.9843 70.4954 78.1856 70.7251C78.3868 70.9548 78.6456 71.0984 78.9474 71.1702C79.2637 71.2276 79.5799 71.2419 79.9249 71.1845V71.9024C79.5799 71.9885 79.2349 72.0172 78.8899 71.9742C78.5449 71.9311 78.2287 71.8306 77.9556 71.644C77.6824 71.4717 77.4668 71.2132 77.2943 70.9117C77.1362 70.5959 77.0499 70.2082 77.0499 69.7488V65.4559H75.9143V64.6806H77.0499V64.6662Z" fill="#006AAC"/>
<path d="M89.5274 62.5273H89.053L85.5599 71.9314H84.6543L88.4349 61.752H90.1312L93.8974 71.9314H93.0062L89.5274 62.5273ZM86.3362 68.3564H92.273V69.1317H86.3362V68.3564Z" fill="#006AAC"/>
<path d="M95.6657 64.6662V62.6274H96.4994V64.6662H98.5407V65.4415H96.4994V69.7344C96.4994 70.1651 96.6 70.4954 96.8013 70.7251C97.0025 70.9548 97.2613 71.0984 97.5632 71.1702C97.8794 71.2276 98.1957 71.2419 98.5407 71.1845V71.9024C98.1957 71.9885 97.8507 72.0172 97.5057 71.9742C97.1607 71.9311 96.8444 71.8306 96.5713 71.644C96.2982 71.4717 96.0825 71.2132 95.91 70.9117C95.7519 70.5959 95.6657 70.2082 95.6657 69.7488V65.4559H94.53V64.6806H95.6657V64.6662Z" fill="#006AAC"/>
<path d="M100.711 64.6662V62.6274H101.545V64.6662H103.586V65.4415H101.545V69.7344C101.545 70.1651 101.646 70.4954 101.847 70.7251C102.048 70.9548 102.307 71.0984 102.609 71.1702C102.925 71.2276 103.241 71.2419 103.586 71.1845V71.9024C103.241 71.9885 102.896 72.0172 102.551 71.9742C102.206 71.9311 101.89 71.8306 101.617 71.644C101.344 71.4717 101.128 71.2132 100.956 70.9117C100.797 70.5959 100.711 70.2082 100.711 69.7488V65.4559H99.5756V64.6806H100.711V64.6662Z" fill="#006AAC"/>
<path d="M108.258 72.0317C107.582 72.0317 106.979 71.8738 106.461 71.5436C105.944 71.2133 105.541 70.7683 105.239 70.194C104.952 69.6197 104.808 68.9592 104.808 68.2126C104.808 67.5091 104.952 66.8774 105.254 66.3174C105.556 65.7719 105.958 65.3268 106.476 65.0109C106.993 64.695 107.582 64.5371 108.244 64.5371C108.891 64.5371 109.48 64.6807 109.983 64.9678C110.486 65.255 110.889 65.6426 111.176 66.1452C111.464 66.6477 111.607 67.2076 111.593 67.8537C111.593 67.9542 111.593 68.0547 111.579 68.1696C111.579 68.2844 111.564 68.3993 111.55 68.5285H105.714C105.728 69.0597 105.843 69.5335 106.059 69.9355C106.289 70.3375 106.576 70.6534 106.95 70.8831C107.324 71.1128 107.755 71.2277 108.229 71.2277C108.833 71.2277 109.351 71.0985 109.782 70.8544C110.213 70.6103 110.529 70.2514 110.716 69.8063L111.435 70.0935C111.162 70.7108 110.745 71.1846 110.199 71.5149C109.652 71.8738 109.006 72.0317 108.258 72.0317ZM110.687 67.825C110.702 67.3368 110.601 66.9205 110.4 66.5472C110.199 66.1739 109.911 65.8867 109.537 65.6714C109.164 65.456 108.718 65.3555 108.215 65.3555C107.769 65.3555 107.367 65.456 107.007 65.6714C106.648 65.8867 106.361 66.1739 106.131 66.5472C105.901 66.9205 105.771 67.3512 105.728 67.825H110.687Z" fill="#006AAC"/>
<path d="M113.448 64.6664H114.224L114.267 65.9873C114.468 65.5422 114.77 65.1976 115.173 64.9392C115.575 64.6808 116.064 64.5659 116.653 64.5659C117.199 64.5659 117.674 64.6808 118.105 64.9249C118.522 65.1689 118.853 65.5135 119.097 65.9873C119.341 66.4611 119.456 67.0498 119.456 67.782V71.9457H118.623V67.8681C118.623 67.0498 118.436 66.418 118.076 65.973C117.703 65.5422 117.199 65.3125 116.538 65.3125C115.834 65.3125 115.288 65.5422 114.899 66.016C114.497 66.4755 114.296 67.179 114.296 68.0979V71.9313H113.462V64.6664H113.448Z" fill="#006AAC"/>
<path d="M127.362 66.3606L127.291 66.3893V61.479H128.124V71.9313H127.348L127.291 70.3376C127.089 70.8114 126.744 71.2134 126.284 71.5436C125.81 71.8738 125.235 72.0318 124.531 72.0318C123.855 72.0318 123.28 71.8738 122.762 71.5723C122.259 71.2708 121.871 70.8401 121.584 70.2658C121.311 69.7058 121.167 69.0454 121.167 68.2845C121.167 67.5235 121.311 66.8774 121.584 66.3175C121.857 65.7575 122.245 65.3268 122.762 65.0109C123.266 64.6951 123.855 64.5515 124.531 64.5515C125.264 64.5515 125.867 64.7238 126.356 65.0684C126.816 65.4273 127.161 65.8437 127.362 66.3606ZM122.058 68.2988C122.058 69.2033 122.288 69.9356 122.762 70.4668C123.237 70.998 123.869 71.2708 124.674 71.2708C125.177 71.2708 125.623 71.156 126.026 70.9119C126.414 70.6678 126.73 70.3232 126.946 69.8925C127.176 69.4474 127.276 68.9305 127.276 68.3132C127.276 67.6958 127.161 67.1789 126.946 66.7338C126.716 66.2888 126.414 65.9442 126.026 65.7145C125.637 65.4704 125.177 65.3555 124.674 65.3555C123.869 65.3555 123.237 65.6283 122.762 66.1595C122.302 66.6764 122.058 67.3943 122.058 68.2988Z" fill="#006AAC"/>
<path d="M135.125 71.931L135.068 70.3948C134.866 70.9116 134.55 71.328 134.119 71.6152C133.688 71.9023 133.141 72.0459 132.48 72.0459C131.963 72.0459 131.503 71.9597 131.143 71.8018C130.769 71.6439 130.496 71.4142 130.295 71.1126C130.094 70.8111 129.993 70.4522 129.993 70.0358C129.993 69.4185 130.223 68.9303 130.683 68.5427C131.143 68.155 131.819 67.9253 132.724 67.8391L135.082 67.5807V66.9633C135.082 66.4608 134.909 66.0588 134.579 65.7717C134.248 65.4845 133.774 65.3409 133.184 65.3409C132.624 65.3409 132.149 65.4701 131.776 65.7286C131.402 65.987 131.158 66.3603 131.028 66.8485L130.266 66.59C130.453 65.9439 130.798 65.4414 131.301 65.0825C131.804 64.7236 132.437 64.5513 133.199 64.5513C134.047 64.5513 134.723 64.7666 135.197 65.1974C135.671 65.6281 135.916 66.2167 135.916 66.9633V71.931H135.125ZM135.068 68.2842L132.696 68.557C132.078 68.6288 131.618 68.7724 131.316 69.0165C131.014 69.2605 130.87 69.5764 130.87 69.9784C130.87 70.3804 131.014 70.7106 131.301 70.9404C131.589 71.1701 131.991 71.2849 132.538 71.2849C133.098 71.2849 133.573 71.1701 133.946 70.9404C134.32 70.7106 134.608 70.3948 134.794 69.9928C134.981 69.5908 135.082 69.1313 135.082 68.6288V68.2842H135.068Z" fill="#006AAC"/>
<path d="M138.101 64.6664H138.877L138.92 65.9873C139.121 65.5422 139.423 65.1976 139.826 64.9392C140.228 64.6808 140.717 64.5659 141.306 64.5659C141.852 64.5659 142.327 64.6808 142.758 64.9249C143.175 65.1689 143.506 65.5135 143.75 65.9873C143.994 66.4611 144.109 67.0498 144.109 67.782V71.9457H143.276V67.8681C143.276 67.0498 143.089 66.418 142.729 65.973C142.356 65.5422 141.852 65.3125 141.191 65.3125C140.487 65.3125 139.941 65.5422 139.552 66.016C139.15 66.4755 138.949 67.179 138.949 68.0979V71.9313H138.115V64.6664H138.101Z" fill="#006AAC"/>
<path d="M149.356 72.0318C148.652 72.0318 148.034 71.8739 147.502 71.5724C146.97 71.2565 146.567 70.8258 146.266 70.2658C145.978 69.7059 145.834 69.0598 145.834 68.3276C145.834 67.581 145.978 66.9205 146.266 66.3606C146.553 65.8007 146.97 65.3556 147.502 65.0397C148.034 64.7238 148.652 64.5659 149.356 64.5659C150.089 64.5659 150.736 64.7382 151.297 65.0828C151.857 65.4274 152.26 65.9155 152.504 66.5185L151.728 66.777C151.57 66.3319 151.282 65.9729 150.866 65.7289C150.449 65.4704 149.946 65.3412 149.385 65.3412C148.853 65.3412 148.379 65.4561 147.976 65.7002C147.574 65.9442 147.257 66.2888 147.042 66.7339C146.826 67.179 146.711 67.7102 146.711 68.2989C146.711 69.189 146.956 69.9069 147.43 70.4381C147.904 70.9694 148.551 71.2422 149.356 71.2422C149.902 71.2422 150.377 71.1129 150.794 70.8689C151.211 70.6248 151.527 70.2802 151.742 69.8351L152.504 70.0936C152.246 70.7109 151.829 71.1847 151.282 71.5149C150.736 71.8739 150.089 72.0318 149.356 72.0318Z" fill="#006AAC"/>
<path d="M157.363 72.0317C156.687 72.0317 156.084 71.8738 155.566 71.5436C155.049 71.2133 154.646 70.7683 154.344 70.194C154.057 69.6197 153.913 68.9592 153.913 68.2126C153.913 67.5091 154.057 66.8774 154.359 66.3174C154.661 65.7719 155.063 65.3268 155.581 65.0109C156.098 64.695 156.687 64.5371 157.349 64.5371C157.996 64.5371 158.585 64.6807 159.088 64.9678C159.591 65.255 159.994 65.6426 160.281 66.1452C160.569 66.6477 160.712 67.2076 160.698 67.8537C160.698 67.9542 160.698 68.0547 160.684 68.1696C160.684 68.2844 160.669 68.3993 160.655 68.5285H154.819C154.833 69.0597 154.948 69.5335 155.164 69.9355C155.394 70.3375 155.681 70.6534 156.055 70.8831C156.429 71.1128 156.86 71.2277 157.334 71.2277C157.938 71.2277 158.456 71.0985 158.887 70.8544C159.318 70.6103 159.634 70.2514 159.821 69.8063L160.54 70.0935C160.267 70.7108 159.85 71.1846 159.304 71.5149C158.743 71.8738 158.096 72.0317 157.363 72.0317ZM159.778 67.825C159.792 67.3368 159.692 66.9205 159.491 66.5472C159.289 66.1739 159.002 65.8867 158.628 65.6714C158.254 65.456 157.809 65.3555 157.306 65.3555C156.86 65.3555 156.457 65.456 156.098 65.6714C155.739 65.8867 155.451 66.1739 155.221 66.5472C154.991 66.9205 154.862 67.3512 154.819 67.825H159.778Z" fill="#006AAC"/>
<path d="M162.495 71.9885C162.308 71.9885 162.164 71.931 162.035 71.8018C161.92 71.6726 161.848 71.5147 161.848 71.3424C161.848 71.1557 161.906 70.9978 162.035 70.8829C162.15 70.7537 162.308 70.6963 162.495 70.6963C162.668 70.6963 162.826 70.7537 162.941 70.8829C163.07 71.0122 163.128 71.1701 163.128 71.3424C163.128 71.529 163.07 71.687 162.941 71.8018C162.826 71.931 162.668 71.9885 162.495 71.9885Z" fill="#006AAC"/>
<path d="M169.754 69.4907C169.826 69.7634 169.956 70.0362 170.143 70.309C170.344 70.5818 170.617 70.8115 170.962 70.9838C171.321 71.1561 171.781 71.2566 172.356 71.2566C173.161 71.2566 173.765 71.07 174.153 70.711C174.541 70.3377 174.743 69.8927 174.743 69.3471C174.743 68.9307 174.628 68.5861 174.412 68.3133C174.196 68.0405 173.894 67.8252 173.521 67.6385C173.147 67.4662 172.73 67.3083 172.256 67.1791C171.853 67.0786 171.465 66.9494 171.091 66.8202C170.718 66.6909 170.387 66.533 170.085 66.332C169.783 66.1454 169.553 65.8869 169.366 65.5854C169.194 65.2839 169.108 64.8963 169.108 64.4512C169.108 63.8912 169.237 63.4031 169.496 62.9867C169.754 62.5703 170.128 62.2545 170.603 62.0248C171.077 61.795 171.652 61.6802 172.299 61.6802C172.874 61.6802 173.363 61.7663 173.779 61.9386C174.196 62.1109 174.541 62.3406 174.814 62.6421C175.088 62.9436 175.274 63.2595 175.389 63.6184L174.613 63.9056C174.541 63.6759 174.398 63.4605 174.196 63.2308C173.995 63.0011 173.736 62.8144 173.406 62.6708C173.075 62.5273 172.701 62.4411 172.241 62.4411C171.824 62.4411 171.436 62.5129 171.091 62.6708C170.746 62.8144 170.459 63.0441 170.258 63.3313C170.042 63.6184 169.941 63.963 169.941 64.3507C169.941 64.7814 170.056 65.1116 170.286 65.3557C170.516 65.5998 170.833 65.8008 171.206 65.9587C171.594 66.1023 172.011 66.2459 172.486 66.3894C172.888 66.5187 173.262 66.6479 173.65 66.7914C174.024 66.935 174.354 67.1217 174.642 67.3227C174.929 67.538 175.159 67.7965 175.332 68.1123C175.504 68.4282 175.591 68.8159 175.591 69.2753C175.591 69.7634 175.476 70.2372 175.246 70.6536C175.016 71.0843 174.671 71.4289 174.196 71.673C173.722 71.9314 173.104 72.0606 172.342 72.0606C171.695 72.0606 171.134 71.9601 170.66 71.7591C170.186 71.5581 169.812 71.2997 169.524 70.9551C169.237 70.6249 169.036 70.2516 168.921 69.8352L169.754 69.4907Z" fill="#006AAC"/>
<path d="M178.178 63.0441C177.991 63.0441 177.847 62.9867 177.732 62.8718C177.617 62.757 177.56 62.6134 177.56 62.4411C177.56 62.2545 177.617 62.1109 177.732 61.996C177.847 61.8812 178.006 61.8237 178.178 61.8237C178.336 61.8237 178.48 61.8812 178.609 61.996C178.724 62.1109 178.796 62.2688 178.796 62.4411C178.796 62.6134 178.739 62.757 178.609 62.8718C178.48 62.9867 178.336 63.0441 178.178 63.0441ZM177.761 64.6665H178.581V71.9314H177.761V64.6665Z" fill="#006AAC"/>
<path d="M181.096 64.6661H181.872L181.93 65.987C182.117 65.5563 182.39 65.2117 182.778 64.9533C183.152 64.6948 183.641 64.5656 184.23 64.5656C184.776 64.5656 185.265 64.7092 185.696 64.982C186.127 65.2691 186.458 65.6855 186.674 66.2598C186.875 65.6712 187.206 65.2548 187.68 64.9676C188.14 64.6948 188.672 64.5513 189.247 64.5513C189.779 64.5513 190.253 64.6661 190.67 64.9102C191.087 65.1543 191.417 65.4989 191.647 65.9727C191.877 66.4465 191.992 67.0495 191.992 67.7673V71.931H191.159V67.8535C191.159 67.0351 190.986 66.4034 190.627 65.9727C190.267 65.5419 189.764 65.3266 189.117 65.3266C188.442 65.3266 187.91 65.5707 187.522 66.0444C187.134 66.5182 186.932 67.2218 186.932 68.1406V71.931H186.084V67.8535C186.084 67.0351 185.912 66.4034 185.567 65.9727C185.222 65.5419 184.719 65.3266 184.072 65.3266C183.396 65.3266 182.879 65.5707 182.491 66.0444C182.102 66.5182 181.916 67.2218 181.916 68.1406V71.931H181.082V64.6661H181.096Z" fill="#006AAC"/>
<path d="M194.954 70.2515L195.026 70.2228V74.8459H194.192V64.6664H194.968L195.026 66.2601C195.227 65.7863 195.558 65.3843 196.018 65.0541C196.478 64.7238 197.067 64.5659 197.786 64.5659C198.433 64.5659 199.008 64.7238 199.511 65.0254C200.014 65.3269 200.416 65.7576 200.704 66.3175C200.991 66.8775 201.135 67.5379 201.135 68.2989C201.135 69.0598 200.991 69.7059 200.718 70.2658C200.445 70.8258 200.057 71.2565 199.554 71.5724C199.051 71.8882 198.461 72.0318 197.786 72.0318C197.053 72.0318 196.434 71.8595 195.96 71.5149C195.486 71.1847 195.155 70.754 194.954 70.2515ZM200.258 68.2989C200.258 67.3943 200.014 66.6621 199.539 66.1309C199.065 65.5997 198.433 65.3269 197.628 65.3269C197.124 65.3269 196.664 65.4417 196.276 65.6858C195.874 65.9299 195.572 66.2745 195.356 66.7052C195.141 67.1503 195.026 67.6671 195.026 68.2845C195.026 68.8875 195.141 69.4044 195.356 69.8495C195.586 70.2946 195.888 70.6391 196.276 70.8832C196.664 71.1273 197.124 71.2422 197.642 71.2422C198.433 71.2422 199.065 70.9694 199.539 70.4381C200.028 69.9356 200.258 69.2177 200.258 68.2989Z" fill="#006AAC"/>
<path d="M202.989 61.5078H203.823V71.9314H202.989V61.5078Z" fill="#006AAC"/>
<path d="M206.77 63.0441C206.583 63.0441 206.439 62.9867 206.324 62.8718C206.209 62.757 206.152 62.6134 206.152 62.4411C206.152 62.2545 206.209 62.1109 206.324 61.996C206.439 61.8812 206.597 61.8237 206.77 61.8237C206.928 61.8237 207.072 61.8812 207.201 61.996C207.316 62.1109 207.388 62.2688 207.388 62.4411C207.388 62.6134 207.331 62.757 207.201 62.8718C207.072 62.9867 206.928 63.0441 206.77 63.0441ZM206.339 64.6665H207.158V71.9314H206.339V64.6665Z" fill="#006AAC"/>
<path d="M214.863 64.652V71.9312H214.029V65.4273H209.041V64.6376H214.863V64.652ZM210.134 63.7618C210.134 63.2449 210.22 62.8142 210.378 62.4409C210.536 62.082 210.809 61.8092 211.183 61.6369C211.557 61.4646 212.06 61.4072 212.678 61.4502V62.2112C212.031 62.1681 211.586 62.2686 211.327 62.5414C211.083 62.8142 210.953 63.2162 210.953 63.7618V71.9312H210.119V63.7618H210.134ZM214.461 63.1157C214.288 63.1157 214.13 63.0583 214.001 62.9291C213.871 62.8142 213.799 62.6563 213.799 62.4696C213.799 62.2686 213.871 62.1107 214.001 61.9958C214.13 61.8666 214.288 61.8092 214.461 61.8092C214.648 61.8092 214.791 61.8666 214.921 61.9958C215.036 62.125 215.108 62.283 215.108 62.4696C215.108 62.6563 215.05 62.7998 214.921 62.9291C214.806 63.0583 214.648 63.1157 214.461 63.1157Z" fill="#006AAC"/>
<path d="M220.412 72.0317C219.736 72.0317 219.133 71.8738 218.615 71.5436C218.098 71.2133 217.695 70.7683 217.393 70.194C217.106 69.6197 216.962 68.9592 216.962 68.2126C216.962 67.5091 217.106 66.8774 217.408 66.3174C217.709 65.7719 218.112 65.3268 218.629 65.0109C219.147 64.695 219.736 64.5371 220.398 64.5371C221.044 64.5371 221.634 64.6807 222.137 64.9678C222.64 65.255 223.043 65.6426 223.33 66.1452C223.618 66.6477 223.761 67.2076 223.747 67.8537C223.747 67.9542 223.747 68.0547 223.733 68.1696C223.733 68.2844 223.718 68.3993 223.704 68.5285H217.868C217.882 69.0597 217.997 69.5335 218.213 69.9355C218.443 70.3375 218.73 70.6534 219.104 70.8831C219.478 71.1128 219.909 71.2277 220.383 71.2277C220.987 71.2277 221.504 71.0985 221.936 70.8544C222.367 70.6103 222.683 70.2514 222.87 69.8063L223.589 70.0935C223.316 70.7108 222.899 71.1846 222.353 71.5149C221.806 71.8738 221.159 72.0317 220.412 72.0317ZM222.827 67.825C222.841 67.3368 222.741 66.9205 222.539 66.5472C222.338 66.1739 222.051 65.8867 221.677 65.6714C221.303 65.456 220.858 65.3555 220.354 65.3555C219.909 65.3555 219.506 65.456 219.147 65.6714C218.788 65.8867 218.5 66.1739 218.27 66.5472C218.04 66.9205 217.911 67.3512 217.868 67.825H222.827Z" fill="#006AAC"/>
<path d="M231.322 66.3606L231.251 66.3893V61.479H232.084V71.9313H231.308L231.251 70.3376C231.049 70.8114 230.704 71.2134 230.244 71.5436C229.77 71.8738 229.195 72.0318 228.491 72.0318C227.815 72.0318 227.24 71.8738 226.722 71.5723C226.219 71.2708 225.831 70.8401 225.544 70.2658C225.271 69.7058 225.127 69.0454 225.127 68.2845C225.127 67.5235 225.271 66.8774 225.544 66.3175C225.817 65.7575 226.205 65.3268 226.722 65.0109C227.226 64.6951 227.815 64.5515 228.491 64.5515C229.224 64.5515 229.827 64.7238 230.316 65.0684C230.776 65.4273 231.121 65.8437 231.322 66.3606ZM226.018 68.2988C226.018 69.2033 226.248 69.9356 226.722 70.4668C227.197 70.998 227.829 71.2708 228.634 71.2708C229.137 71.2708 229.583 71.156 229.986 70.9119C230.374 70.6678 230.69 70.3232 230.906 69.8925C231.136 69.4474 231.236 68.9305 231.236 68.3132C231.236 67.6958 231.121 67.1789 230.906 66.7338C230.676 66.2888 230.374 65.9442 229.986 65.7145C229.597 65.4704 229.137 65.3555 228.634 65.3555C227.829 65.3555 227.197 65.6283 226.722 66.1595C226.262 66.6764 226.018 67.3943 226.018 68.2988Z" fill="#006AAC"/>
<path d="M234.83 71.9885C234.643 71.9885 234.499 71.931 234.37 71.8018C234.255 71.6726 234.183 71.5147 234.183 71.3424C234.183 71.1557 234.241 70.9978 234.37 70.8829C234.485 70.7537 234.643 70.6963 234.83 70.6963C235.002 70.6963 235.161 70.7537 235.276 70.8829C235.405 71.0122 235.462 71.1701 235.462 71.3424C235.462 71.529 235.405 71.687 235.276 71.8018C235.146 71.931 235.002 71.9885 234.83 71.9885Z" fill="#006AAC"/>
<path d="M56.393 19.9137V10.5239H65.1905V19.9137H72.5793V27.4945H65.1905V41.1198C65.1905 42.9144 65.5499 44.1492 66.2687 44.8384C66.9874 45.5275 67.9218 45.9008 69.0862 45.9439C70.2505 45.987 71.4437 45.9152 72.6512 45.7429V53.1226C70.5524 53.5677 68.5112 53.7113 66.5418 53.5534C64.5724 53.3954 62.833 52.8786 61.338 51.974C59.843 51.0839 58.6355 49.7486 57.7443 47.9827C56.853 46.2167 56.4074 43.9195 56.4074 41.1054V27.4801H51.7068V19.8994H56.393V19.9137Z" fill="#006AAC"/>
<path d="M81.0461 19.9137V10.5239H89.8436V19.9137H97.2324V27.4945H89.8436V41.1198C89.8436 42.9144 90.203 44.1492 90.9217 44.8384C91.6405 45.5275 92.5749 45.9008 93.7392 45.9439C94.9036 45.987 96.0967 45.9152 97.3042 45.7429V53.1226C95.2055 53.5677 93.1642 53.7113 91.1949 53.5534C89.2255 53.3954 87.4861 52.8786 85.9911 51.974C84.4961 51.0839 83.2886 49.7486 82.3974 47.9827C81.5061 46.2167 81.0605 43.9195 81.0605 41.1054V27.4801H76.3599V19.8994H81.0461V19.9137Z" fill="#006AAC"/>
<path d="M118.666 53.941C115.259 53.941 112.283 53.2088 109.724 51.73C107.166 50.2511 105.196 48.198 103.773 45.5562C102.364 42.9145 101.66 39.8707 101.66 36.4249C101.66 33.1657 102.364 30.2511 103.773 27.6955C105.182 25.1399 107.122 23.1298 109.581 21.651C112.039 20.1722 114.871 19.4399 118.047 19.4399C121.267 19.4399 124.114 20.1291 126.586 21.4931C129.044 22.857 130.971 24.7953 132.336 27.2935C133.702 29.8061 134.406 32.7063 134.449 36.0229C134.449 36.511 134.421 37.0566 134.349 37.6596C134.277 38.2626 134.176 38.8944 134.047 39.5692H110.946C111.119 41.0049 111.579 42.2253 112.326 43.2303C113.059 44.2353 113.979 45.025 115.086 45.585C116.179 46.1449 117.444 46.4177 118.881 46.4177C120.491 46.4177 121.957 46.0875 123.28 45.4127C124.602 44.7379 125.551 43.819 126.141 42.656L133.802 44.8671C132.466 47.7242 130.453 49.9496 127.794 51.5433C125.106 53.1514 122.072 53.941 118.666 53.941ZM125.048 33.338C124.962 32.0889 124.602 30.9547 123.97 29.9496C123.337 28.9446 122.532 28.1549 121.512 27.595C120.506 27.0351 119.356 26.7623 118.047 26.7623C116.926 26.8053 115.877 27.1068 114.885 27.6668C113.893 28.2267 113.059 28.9877 112.369 29.9496C111.679 30.9116 111.219 32.0458 110.989 33.338H125.048Z" fill="#006AAC"/>
<path d="M140.976 19.9137H148.767L149.371 23.3308C150.449 22.1248 151.757 21.1772 153.295 20.4737C154.833 19.7845 156.515 19.4399 158.297 19.4399C160.986 19.4399 163.257 19.9999 165.111 21.1198C166.966 22.2397 168.389 23.8621 169.381 25.987C170.372 28.1119 170.861 30.7393 170.861 33.8692V53.4672H162.265V34.946C162.265 32.4478 161.733 30.5239 160.684 29.1743C159.634 27.8391 158.067 27.1643 156.012 27.1643C153.913 27.1643 152.303 27.8391 151.211 29.1743C150.118 30.5096 149.572 32.4909 149.572 35.0753V53.4672H140.976V19.9137Z" fill="#006AAC"/>
<path d="M203.047 24.9533L201.969 25.1543V5.1543H210.565V53.4673H202.774L202.242 49.3036C201.207 50.5958 199.798 51.7013 198.015 52.5915C196.219 53.4816 194.192 53.9267 191.906 53.9267C188.945 53.9267 186.357 53.2089 184.115 51.7731C181.872 50.3374 180.133 48.3273 178.868 45.7286C177.617 43.1299 176.985 40.1148 176.985 36.669C176.985 33.1801 177.617 30.1363 178.868 27.5376C180.119 24.9389 181.872 22.9432 184.115 21.5362C186.357 20.1292 188.945 19.4257 191.906 19.4257C194.465 19.4257 196.693 19.9569 198.619 21.0337C200.545 22.1392 202.012 23.4314 203.047 24.9533ZM186.185 36.6977C186.185 39.4687 186.918 41.7372 188.37 43.4745C189.822 45.2261 191.719 46.0875 194.048 46.0875C195.485 46.0875 196.794 45.7142 197.972 44.982C199.165 44.2498 200.129 43.1873 200.862 41.7946C201.595 40.402 201.969 38.7078 201.969 36.6977C201.969 34.6877 201.595 32.9791 200.862 31.6008C200.129 30.2081 199.165 29.1457 197.972 28.4134C196.779 27.6812 195.471 27.3079 194.048 27.3079C191.719 27.3079 189.822 28.1837 188.37 29.921C186.918 31.6582 186.185 33.9267 186.185 36.6977Z" fill="#006AAC"/>
<path d="M224.35 15.6207C222.74 15.6207 221.418 15.1038 220.383 14.0845C219.348 13.0507 218.845 11.8303 218.845 10.3946C218.845 8.91577 219.362 7.68102 220.383 6.67599C221.418 5.67097 222.74 5.16846 224.35 5.16846C225.874 5.16846 227.154 5.67097 228.217 6.67599C229.267 7.68102 229.799 8.93012 229.799 10.3946C229.799 11.8303 229.267 13.0507 228.217 14.0845C227.154 15.1182 225.874 15.6207 224.35 15.6207ZM219.98 19.9136H228.649V53.4671H219.98V19.9136Z" fill="#006AAC"/>
<path d="M235.434 19.9136H245.439L252.296 30.251L259.081 19.9136H268.956L257.269 36.6831L268.956 53.4527H259.081L252.296 43.0579L245.439 53.4527H235.434L247.264 36.6831L235.434 19.9136Z" fill="#006AAC"/>
<path d="M36.8431 9.87793H22.8275L7.0437 53.8262H15.8412L19.3918 43.6611H40.2931L43.8725 53.8262H52.6125L36.8431 9.87793ZM29.8425 15.1041C32.315 15.1041 34.3275 17.1141 34.3275 19.5836C34.3275 22.0531 32.315 24.0631 29.8425 24.0631C27.37 24.0631 25.3574 22.0531 25.3574 19.5836C25.3574 17.1141 27.37 15.1041 29.8425 15.1041ZM38.6543 36.1522C37.4468 37.272 34.8449 39.0667 29.6699 39.1242C24.2218 39.1816 21.8212 37.1285 20.7862 35.9942C20.1825 35.4056 20.2975 34.4436 20.3837 34.0272C21.62 28.4853 25.3862 24.4652 29.8425 24.4652C34.2843 24.4652 38.0362 28.4709 39.2868 33.9842C39.3874 34.4149 39.5168 35.463 38.6543 36.1522Z" fill="#006AAC"/>
</svg>
