<svg width="100" height="100" viewBox="0 0 100 100" fill="none" xmlns="http://www.w3.org/2000/svg">
<rect width="100" height="100" rx="12" fill="#0069AB"/>
<path d="M59.446 18.75H40.3113L18.7627 78.75H30.7734L35.6208 64.8722H64.1561L69.0428 78.75H80.975L59.446 18.75ZM49.8885 25.8849C53.264 25.8849 56.0116 28.6291 56.0116 32.0006C56.0116 35.372 53.264 38.1162 49.8885 38.1162C46.5129 38.1162 43.7654 35.372 43.7654 32.0006C43.7654 28.6291 46.5129 25.8849 49.8885 25.8849ZM61.9188 54.6206C60.2703 56.1495 56.7181 58.5997 49.653 58.6781C42.215 58.7565 38.9375 55.9535 37.5245 54.405C36.7002 53.6014 36.8572 52.2881 36.975 51.7196C38.6628 44.1535 43.8046 38.6651 49.8885 38.6651C55.9527 38.6651 61.0749 44.1339 62.7823 51.6608C62.9197 52.2489 63.0963 53.6798 61.9188 54.6206Z" fill="white"/>
</svg>
