<svg width="46" height="44" viewBox="0 0 46 44" fill="none" xmlns="http://www.w3.org/2000/svg">
<path d="M29.7994 0H15.7838L0 43.9483H8.7975L12.3481 33.7832H33.2494L36.8288 43.9483H45.5687L29.7994 0ZM22.7988 5.22613C25.2713 5.22613 27.2837 7.23618 27.2837 9.70567C27.2837 12.1752 25.2713 14.1852 22.7988 14.1852C20.3263 14.1852 18.3137 12.1752 18.3137 9.70567C18.3137 7.23618 20.3263 5.22613 22.7988 5.22613ZM31.6106 26.2742C30.4031 27.3941 27.8012 29.1888 22.6262 29.2462C17.1781 29.3037 14.7775 27.2505 13.7425 26.1163C13.1388 25.5276 13.2538 24.5657 13.34 24.1493C14.5763 18.6073 18.3425 14.5872 22.7988 14.5872C27.2406 14.5872 30.9925 18.593 32.2431 24.1062C32.3437 24.537 32.4731 25.5851 31.6106 26.2742Z" fill="#006AAC"/>
</svg>
