<svg width="314" height="104" viewBox="0 0 314 104" fill="none" xmlns="http://www.w3.org/2000/svg">
<path d="M116.024 48.3809C124.19 48.3809 128.388 53.264 128.388 61.8138V63.4923H120.453V61.2775C120.453 57.4626 118.927 56.0107 116.255 56.0107C113.582 56.0107 112.056 57.4626 112.056 61.2775C112.056 65.1709 113.735 68.0702 119.228 72.8792C126.248 79.0616 128.462 83.4869 128.462 89.5908C128.462 98.1362 124.19 103.024 115.945 103.024C107.705 103.024 103.428 98.1406 103.428 89.5908V86.3078H111.363V90.1227C111.363 93.9376 113.041 95.311 115.714 95.311C118.387 95.311 120.065 93.9376 120.065 90.1227C120.065 86.2293 118.387 83.33 112.893 78.521C105.874 72.3386 103.659 67.9133 103.659 61.8094C103.663 53.264 107.857 48.3809 116.024 48.3809Z" fill="#236586"/>
<path d="M144.563 48.3809C152.729 48.3809 156.927 53.264 156.927 61.8138V63.4923H148.992V61.2775C148.992 57.4626 147.466 56.0107 144.794 56.0107C142.121 56.0107 140.595 57.4626 140.595 61.2775C140.595 65.1709 142.274 68.0702 147.767 72.8792C154.787 79.0616 157.001 83.4869 157.001 89.5908C157.001 98.1362 152.729 103.024 144.484 103.024C136.244 103.024 131.967 98.1406 131.967 89.5908V86.3078H139.902V90.1227C139.902 93.9376 141.58 95.311 144.253 95.311C146.926 95.311 148.604 93.9376 148.604 90.1227C148.604 86.2293 146.926 83.33 141.432 78.521C134.413 72.3386 132.198 67.9133 132.198 61.8094C132.202 53.264 136.401 48.3809 144.563 48.3809Z" fill="#236586"/>
<path d="M170.207 71.5024H181.731V79.1323H170.207V94.7757H184.708V102.406H161.814V48.9922H184.708V56.622H170.207V71.5024Z" fill="#236586"/>
<path d="M187.453 48.9922H213.399V56.622H204.622V102.41H196.23V56.622H187.453V48.9922Z" fill="#236586"/>
<path d="M253.77 62.194V69.1394C253.77 77.6848 249.65 82.3412 241.253 82.3412H237.285V102.41H228.893V48.9922H241.257C249.646 48.9922 253.77 53.6486 253.77 62.194ZM237.285 56.622V74.707H241.253C243.926 74.707 245.373 73.4862 245.373 69.6713V61.6621C245.373 57.8472 243.921 56.6264 241.253 56.6264H237.285V56.622Z" fill="#236586"/>
<path d="M275.213 102.41C274.755 101.037 274.45 100.195 274.45 95.8482V87.4554C274.45 82.4938 272.771 80.6626 268.956 80.6626H266.057V102.41H257.664V48.9922H270.334C279.032 48.9922 282.773 53.0382 282.773 61.2784V65.477C282.773 70.9705 281.016 74.4803 277.279 76.2373V76.3899C281.478 78.147 282.851 82.1145 282.851 87.6865V95.9267C282.851 98.5208 282.925 100.43 283.767 102.414H275.213V102.41ZM266.057 56.622V73.0284H269.34C272.47 73.0284 274.376 71.655 274.376 67.3823V62.1155C274.376 58.3006 273.076 56.622 270.103 56.622H266.057Z" fill="#236586"/>
<path d="M287.65 61.8138C287.65 53.2683 292.154 48.3809 300.394 48.3809C308.635 48.3809 313.138 53.264 313.138 61.8138V89.5908C313.138 98.1362 308.635 103.024 300.394 103.024C292.154 103.024 287.65 98.1406 287.65 89.5908V61.8138ZM296.043 90.1227C296.043 93.9376 297.722 95.3895 300.394 95.3895C303.067 95.3895 304.746 93.9376 304.746 90.1227V61.2775C304.746 57.4626 303.067 56.0107 300.394 56.0107C297.722 56.0107 296.043 57.4626 296.043 61.2775V90.1227Z" fill="#236586"/>
<path d="M46.4978 21.1979L70.7999 78.9189C71.5411 77.8856 72.8273 76.4642 73.7821 75.6271C77.039 72.5926 81.8741 71.459 86.6787 71.459C87.3458 71.459 88.8849 71.8296 89.5301 71.8994L56.5038 0H36.9495C36.1778 1.72217 35.4105 3.44433 34.6388 5.17086C30.3704 14.7278 26.0977 24.2804 21.8293 33.8373C16.8503 44.9813 11.8669 56.1296 6.88791 67.2735C5.23114 70.9794 3.57437 74.6854 1.91761 78.3913C-1.14742 85.2495 -0.855305 92.5654 5.12214 97.8976C10.3279 102.541 17.6089 102.707 24.2055 102.554C29.4505 102.432 34.6693 102.523 39.9012 102.502C51.0364 102.454 62.2153 102.327 73.3679 102.327C70.4119 99.0835 67.6826 94.9241 67.6826 90.1936C67.6826 88.7461 67.6259 87.1853 67.9442 85.8381H18.869L46.4978 21.1979Z" fill="#236586"/>
<path d="M85.1219 101.29C92.1964 101.29 97.9314 95.5548 97.9314 88.4803C97.9314 81.4059 92.1964 75.6709 85.1219 75.6709C78.0475 75.6709 72.3125 81.4059 72.3125 88.4803C72.3125 95.5548 78.0475 101.29 85.1219 101.29Z" stroke="#69B1D5" stroke-width="3.3824" stroke-miterlimit="10"/>
<path d="M81.6071 93.9876H78.3633V88.6162C78.3633 87.9012 78.9432 87.3213 79.6582 87.3213H80.3122C81.0272 87.3213 81.6071 87.9012 81.6071 88.6162V93.9876Z" fill="#236586"/>
<path d="M91.8727 93.9879H88.6289V86.1357C88.6289 85.4207 89.2088 84.8408 89.9238 84.8408H90.5778C91.2928 84.8408 91.8727 85.4207 91.8727 86.1357V93.9879Z" fill="#236586"/>
<path d="M86.7594 93.9878H83.5156V84.2695C83.5156 83.5545 84.0955 82.9746 84.8105 82.9746H85.4645C86.1795 82.9746 86.7594 83.5545 86.7594 84.2695V93.9878Z" fill="#236586"/>
</svg>
